<svg width="20" height="20" viewBox="0 0 20 20" fill="none" xmlns="http://www.w3.org/2000/svg">
<path d="M18.333 10.5819C18.3317 11.8065 18.3224 12.8474 18.2528 13.7015C18.1721 14.6926 18.0066 15.5208 17.6362 16.2086C17.4728 16.512 17.2721 16.7837 17.0276 17.0281C16.334 17.7218 15.4502 18.036 14.3303 18.1866C13.2361 18.3337 11.8338 18.3337 10.0443 18.3337H9.95536C8.16591 18.3337 6.76355 18.3337 5.66938 18.1866C4.54943 18.036 3.66569 17.7218 2.97204 17.0281C2.35709 16.4132 2.03953 15.6478 1.87065 14.6983C1.70476 13.7656 1.67441 12.6052 1.66811 11.1643C1.6665 10.7977 1.6665 10.4101 1.6665 10.0011V9.95585C1.66649 8.1664 1.66649 6.76404 1.81359 5.66986C1.96417 4.54991 2.27839 3.66618 2.97204 2.97252C3.66569 2.27887 4.54943 1.96466 5.66938 1.81408C6.64243 1.68326 7.89439 1.66878 9.41819 1.66719C9.73929 1.66685 9.99984 1.92729 9.99984 2.24839C9.99984 2.56948 9.73917 2.82966 9.41808 2.83C7.87275 2.83163 6.72276 2.84571 5.82432 2.9665C4.83331 3.09974 4.23585 3.35315 3.79425 3.79474C3.35266 4.23634 3.09925 4.83379 2.96602 5.8248C2.83053 6.83254 2.8293 8.15674 2.8293 10.0003C2.8293 10.2255 2.8293 10.4432 2.82956 10.654L3.60563 9.97495C4.31205 9.35685 5.37671 9.3923 6.04044 10.056L9.36581 13.3814C9.89855 13.9141 10.7372 13.9868 11.3536 13.5536L11.5847 13.3911C12.4717 12.7677 13.6718 12.84 14.4776 13.5652L16.6718 15.54C16.8927 15.0762 17.0238 14.4668 17.0939 13.6071C17.1599 12.7971 17.1689 11.8132 17.1702 10.5819C17.1705 10.2608 17.4307 10.0003 17.7518 10.0003C18.0729 10.0003 18.3333 10.2608 18.333 10.5819Z" fill="white"/>
<path fill-rule="evenodd" clip-rule="evenodd" d="M14.5832 9.16699C12.8154 9.16699 11.9315 9.16699 11.3823 8.61782C10.8332 8.06864 10.8332 7.18476 10.8332 5.41699C10.8332 3.64923 10.8332 2.76534 11.3823 2.21617C11.9315 1.66699 12.8154 1.66699 14.5832 1.66699C16.3509 1.66699 17.2348 1.66699 17.784 2.21617C18.3332 2.76534 18.3332 3.64923 18.3332 5.41699C18.3332 7.18476 18.3332 8.06864 17.784 8.61782C17.2348 9.16699 16.3509 9.16699 14.5832 9.16699ZM16.4265 3.57361C16.7465 3.89355 16.7465 4.41227 16.4265 4.73221L16.3784 4.78041C16.3319 4.82691 16.2669 4.84798 16.2022 4.83636C16.1614 4.82905 16.1019 4.8155 16.0309 4.79086C15.8888 4.74157 15.7023 4.64849 15.527 4.47317C15.3517 4.29786 15.2586 4.11136 15.2093 3.96929C15.1847 3.89825 15.1711 3.83872 15.1638 3.798C15.1522 3.73327 15.1733 3.66831 15.2198 3.6218L15.268 3.57361C15.5879 3.25367 16.1066 3.25367 16.4265 3.57361ZM14.4582 6.70057C14.3379 6.82081 14.2778 6.88093 14.2115 6.93264C14.1333 6.99363 14.0487 7.04592 13.9592 7.08859C13.8833 7.12476 13.8027 7.15164 13.6413 7.20542L12.7906 7.48898C12.7112 7.51544 12.6237 7.49478 12.5646 7.43561C12.5054 7.37644 12.4847 7.28891 12.5112 7.20953L12.7947 6.35883C12.8485 6.19751 12.8754 6.11685 12.9116 6.04096C12.9542 5.95143 13.0065 5.86682 13.0675 5.78862C13.1192 5.72234 13.1793 5.66222 13.2996 5.54199L14.7986 4.04296C14.8348 4.00671 14.8973 4.0233 14.9141 4.07172C14.9755 4.24866 15.0907 4.47883 15.306 4.69414C15.5213 4.90945 15.7515 5.02471 15.9284 5.08609C15.9769 5.10289 15.9934 5.16531 15.9572 5.20156L14.4582 6.70057Z" fill="white"/>
</svg>
